<?xml version="1.0" encoding="utf-8"?>
<!-- Generator: Adobe Illustrator 17.0.0, SVG Export Plug-In . SVG Version: 6.00 Build 0)  -->
<!DOCTYPE svg PUBLIC "-//W3C//DTD SVG 1.1//EN" "http://www.w3.org/Graphics/SVG/1.1/DTD/svg11.dtd">
<svg version="1.1" id="Camada_1" xmlns="http://www.w3.org/2000/svg" xmlns:xlink="http://www.w3.org/1999/xlink" x="0px" y="0px"
	 width="20px" height="25px" viewBox="0 0 20 25" style="enable-background:new 0 0 20 25;" xml:space="preserve">
<style type="text/css">
	.st0{fill:#CCCCCC;}
</style>
<path class="st0" d="M19.1,5.9h-2.8C15.9,2.6,13.2,0,10,0S4.1,2.6,3.7,5.9H0.9C0.4,5.9,0,6.3,0,6.8V24c0,0.5,0.4,1,0.9,1h18.1
	c0.5,0,0.9-0.4,0.9-1V6.8C20,6.3,19.6,5.9,19.1,5.9L19.1,5.9z M10,2c2.2,0,4,1.7,4.4,3.9H5.6C6,3.6,7.8,2,10,2L10,2z M18.1,23H1.9
	V7.8h1.9v2.9c0,0.5,0.4,1,0.9,1s0.9-0.4,0.9-1V7.8h8.9v2.9c0,0.5,0.4,1,0.9,1c0.5,0,0.9-0.4,0.9-1V7.8h1.9V23z M18.1,23"/>
</svg>
