<svg version="1.1" id="Layer_1" xmlns="http://www.w3.org/2000/svg" xmlns:xlink="http://www.w3.org/1999/xlink" x="0px" y="0px" width="100px" height="100px" viewBox="0 0 100 100" enable-background="new 0 0 100 100" xml:space="preserve"><path display="none" d="M204.888,439.486c0.607,0.521,1.359,0.782,2.112,0.782s1.504-0.261,2.112-0.782
								c27.126-23.242,47.646-38.213,47.646-58.121c0-15.753-11.16-27.633-25.961-27.633c-12.592,0-20.043,8.785-23.797,15.18
								c-3.754-6.394-11.206-15.18-23.797-15.18c-14.8,0-25.961,11.88-25.961,27.633C157.242,401.275,177.766,416.248,204.888,439.486z"></path><path fill="#D0D0D0" d="M73.797,13.732c10.987,0,18.961,8.677,18.961,20.633c0,14.525-15.386,27.545-36.68,45.564
								c-1.979,1.674-4.006,3.39-6.078,5.155c-2.072-1.765-4.1-3.481-6.079-5.155C22.627,61.91,7.242,48.891,7.242,34.365
								c0-11.956,7.974-20.633,18.961-20.633c8.99,0,14.62,6.376,17.76,11.724L50,35.739l6.036-10.283
								C59.176,20.107,64.806,13.732,73.797,13.732 M73.797,6.732c-12.592,0-20.043,8.785-23.797,15.18
								c-3.754-6.394-11.206-15.18-23.797-15.18c-14.8,0-25.961,11.88-25.961,27.633c0,19.91,20.524,34.883,47.646,58.121
								c0.607,0.521,1.359,0.782,2.112,0.782s1.504-0.261,2.112-0.782c27.126-23.242,47.646-38.213,47.646-58.121
								C99.758,18.612,88.598,6.732,73.797,6.732L73.797,6.732z"></path></svg>