<svg xmlns="http://www.w3.org/2000/svg" viewBox="0 0 516.29 91.57"><defs><style>.cls-1{fill:#333;}</style></defs><title>Ativo 17</title><g id="Camada_2" data-name="Camada 2"><g id="Camada_1-2" data-name="Camada 1"><path class="cls-1" d="M49,.14.12,51.65a.45.45,0,0,0,.33.76h16.6L8.19,91a.44.44,0,0,0,.76.39l46.94-54a.43.43,0,0,0-.32-.72H41.15L49.68.54A.43.43,0,0,0,49,.14Z"/><path class="cls-1" d="M126.49,33.68c-2.45-4.75-8.36-6.05-11.31-6.05-3.6,0-7.34,0-9.22,2.88a4,4,0,0,0-.07,3.39c1,2.52,5.84,3.09,8.36,3.45l17.64,2.52c5.69.8,14.18,2.67,17.28,9.65,1.87,3.89,1.44,10-1.08,13.9-6.55,10.22-21.6,11.16-29.09,11.16h-7.42c-16.63,0-26.93-4.68-32-13.25a21.1,21.1,0,0,1-1.8-5.4h24.12a12.75,12.75,0,0,0,2.31,2.81c4.17,3.89,11.37,4,14.76,3.38,1.73-.29,4.25-1,5.18-3.17a3.16,3.16,0,0,0-.07-3.09c-1.66-3-5.11-3.24-9.86-3.82l-12.46-1.37c-5.55-.57-17.35-2.44-20.74-10.22-1.8-4.11-1.44-10.87,1.22-14.76,6-9.22,20.31-9.43,25.71-9.43h6.84c19.44,0,30.68,7.27,33.84,17.42Z"/><path class="cls-1" d="M205.11,39.87c-2.3-6.12-5.26-8.06-10.8-9.07-3.6-.65-9.72-.14-13.32,3.53-4.47,4.61-4.11,13-3.39,16.34A11.51,11.51,0,0,0,185,59.39c4.54,1.8,11.52,1,14.76-1,3.46-2.16,4.47-4.68,5.55-8.28l21.89,1.08c-.36,17.42-17.5,23.4-34.28,23.4h-3.67c-9.29,0-23.48-1.37-31-13.9-4.54-7.41-5-21.89-.8-29.74,6.92-12.45,21.75-14.68,30.61-14.68h7.13c6.4,0,21.89,1.72,28.58,12.67a20.24,20.24,0,0,1,2.88,10.94Z"/><path class="cls-1" d="M280.78,17.84,303.25,73h-20.6l-4.17-10.23H251.76l-4,10.23H227.14l22.32-55.16Zm-7.13,32.83-8.49-20.52-8.43,20.52Z"/><path class="cls-1" d="M365,17.84V31.09H329v9.43h32.9V53.7H329V73H307V17.84Z"/><path class="cls-1" d="M427.73,17.84V31.09h-36v6.48h32.91V50.75H391.73v8.64H430V73H369.77V17.84Z"/><path class="cls-1" d="M458.33,17.84V58.38H489.8V73H436.37V17.84Z"/><path class="cls-1" d="M516.29,73h-22V17.84h22Z"/></g></g></svg>