<svg xmlns="http://www.w3.org/2000/svg" viewBox="0 0 526.85 135.74"><defs><style>.cls-1{fill:#333;}</style></defs><title>Ativo 19</title><g id="Camada_2" data-name="Camada 2"><g id="Camada_1-2" data-name="Camada 1"><path class="cls-1" d="M35.87,114.42,44.7,114c2.94-.12,5.88-.32,8.83-.58h.38a3.8,3.8,0,0,1,2.4.48,4.38,4.38,0,0,1,.68,2.38,2,2,0,0,0,.19,1.14,13.56,13.56,0,0,1,.86,5.13c-.06,1.65-.16,3.36-.29,5.13a2.23,2.23,0,0,0-.09,1.14,7.49,7.49,0,0,1,.09,1.14,2.4,2.4,0,0,1-1.92,2.48,11.88,11.88,0,0,1-1.92.38,36,36,0,0,1-5.18.38H37.79q-3.07.19-6.05.29c-2,.07-4,.22-6,.48a138.84,138.84,0,0,0-14.21,1.15c-1,.13-2.08.26-3.17.38a26.68,26.68,0,0,1-3.16.2,12.17,12.17,0,0,1-4.23-1,1.32,1.32,0,0,1-.86-1.63,19.77,19.77,0,0,0,.48-2.6,12.54,12.54,0,0,1,.09-1.63,9.39,9.39,0,0,0,.1-1.44,11.81,11.81,0,0,0,.19-3.55,14.45,14.45,0,0,1,0-3.36,8.23,8.23,0,0,0,.1-2.21,7.87,7.87,0,0,1,.09-2.21,5.57,5.57,0,0,1,.1-1,6.52,6.52,0,0,0,.1-1,72.83,72.83,0,0,0-.2-9.12A72.8,72.8,0,0,1,.92,96q.19-4.6.19-9.12V77.94q0-3.25-.09-6.52c-.07-2.18,0-4.35.09-6.53q.19-5,0-9.79t0-9.79A57.59,57.59,0,0,0,.54,34.94q-.2-3.46-.1-6.82T.35,21.31V9.59A4.72,4.72,0,0,1,.25,8a12.35,12.35,0,0,0,.1-1.63A2,2,0,0,1,.54,4.79a14.16,14.16,0,0,0,.77-1.34Q2.65.57,6.68,1c3.71.39,7.39.61,11,.68s7.33,0,11-.1c1.54,0,3.07,0,4.61.1s3.07.09,4.61.09c.77-.12,1.53-.22,2.3-.29s1.47-.09,2.11-.09L48.83,1a57.46,57.46,0,0,1,6.43,0,9.7,9.7,0,0,1,3.65.68c.51.32.7,1.76.57,4.31,0,.77,0,1.57-.09,2.41s-.17,1.69-.29,2.59a28.54,28.54,0,0,0-.77,7.29q0,3.47-3.65,3.46a45.42,45.42,0,0,1-6,0,43.81,43.81,0,0,1-7.3-.58A29.75,29.75,0,0,0,35.19,21c-2,.19-4,.29-6,.29a6,6,0,0,0-5,2.49,37.22,37.22,0,0,0-2,3.84,7.86,7.86,0,0,0-.67,4,12.11,12.11,0,0,1-.2,2.21c-.13.71-.25,1.38-.38,2a13.61,13.61,0,0,0-.38,3.36v6.53a23.47,23.47,0,0,0,.19,3,13.43,13.43,0,0,0,.57,3.84A5.44,5.44,0,0,0,26.07,57l4.71.77a17.35,17.35,0,0,0,5.09,0,17,17,0,0,1,3.64,0H42.3a9.31,9.31,0,0,0,2.59-.39,5.53,5.53,0,0,1,1.92-.19,4.18,4.18,0,0,1,4,3.07c.26,1,.48,2.11.67,3.26a11,11,0,0,1,.1,3.27,22.13,22.13,0,0,0-.19,2.78v2.6c-.13,3.2-1.8,4.79-5,4.79h-1A34.82,34.82,0,0,0,37,76.5a54.33,54.33,0,0,1-8.64-.09c-3.59,0-5.95,1.74-7.11,5.21a10.65,10.65,0,0,0-.48,2.32c-.06.77-.16,1.54-.28,2.31l-.39,5a58.66,58.66,0,0,0,.1,7.52,56.19,56.19,0,0,1,.09,7.34,5.2,5.2,0,0,0-.09,1.73,15.28,15.28,0,0,1,.09,1.74,4.44,4.44,0,0,0,2.88,4.24,10.09,10.09,0,0,0,4.61,1l8.07-1Zm-30-95.61a.53.53,0,0,1-.38-.19,2.12,2.12,0,0,0,.38,2.88ZM9.75,125.56l.2.19v-.19ZM14,127.48a.4.4,0,0,1-.29-.09.38.38,0,0,0-.29-.1l-.19.19a.37.37,0,0,0,.1.29c.06.06.09,0,.09-.1A.78.78,0,0,0,14,127.48Zm.19-112.9a4.31,4.31,0,0,0-.38,1.35,4.2,4.2,0,0,0,.38,1.34Q16.09,15.37,14.17,14.58Zm6.72,103.3a17.43,17.43,0,0,0,2.4.39,4.14,4.14,0,0,0,1.44-.43,2.66,2.66,0,0,0-2-.29A6.74,6.74,0,0,1,20.89,117.88Zm.19-46.27.19.19.39-.38a.17.17,0,0,0-.19-.19Zm6.72,49a15.7,15.7,0,0,0-3-.1,8,8,0,0,0-3,.87,23.24,23.24,0,0,0,3.55.09A7.71,7.71,0,0,0,27.8,120.57Zm-.77-2.3.39-.58v-.19a1.45,1.45,0,0,1-.58.19.17.17,0,0,0-.19.19ZM40.86,15.93c-.77-.51-1.28-.74-1.54-.67a7.55,7.55,0,0,0-1.73,1Zm4.22-.58h.77l.19-.19a1.52,1.52,0,0,1-1-.19Z"/><path class="cls-1" d="M78.49,2.49l7.29-.39a3.75,3.75,0,0,1,3.84,2.31c.13.51.26,1,.39,1.53a6.83,6.83,0,0,1,.19,1.54,25.24,25.24,0,0,0,.58,5.38q.57,2.69,1.15,5.37A111,111,0,0,0,95,31.1a124.46,124.46,0,0,1,3.65,15.17l1.73,7.48,2.68,11.71A147.16,147.16,0,0,0,107.67,81a5.64,5.64,0,0,1,.58,1,2.57,2.57,0,0,0,.57.87,3.11,3.11,0,0,0,2.31,1.44,2.54,2.54,0,0,0,2.3-1.25c.26-.38.54-.83.87-1.34s.6-1,.86-1.54q1-2.88,1.73-5.67c.51-1.85,1.08-3.74,1.73-5.66l4-13.44a18.9,18.9,0,0,1,1-3.07c.45-1,.87-2,1.25-3.07l2.88-8.84c.9-2.55,1.76-5.15,2.59-7.77s1.64-5.28,2.4-8l4-15.36.57-2.11q.76-4,5.19-4.42A32.44,32.44,0,0,1,146,2.68h8.73A4.85,4.85,0,0,1,158.94,5a12.31,12.31,0,0,1,.38,1.92c-.13.77-.26,1.57-.38,2.41a5,5,0,0,1-1.16,2.4,4.36,4.36,0,0,0-.57,1.24,15.93,15.93,0,0,1-.58,1.63,18.39,18.39,0,0,0-.67,2c-.19.71-.42,1.44-.67,2.21q-1.54,4.8-3.46,9.5T148,37.63q-1,2.86-1.73,5.76c-.51,1.92-1.09,3.9-1.72,6l-.39,1.53c-1.66,4.48-3.14,9-4.41,13.44s-2.63,9-4,13.44q-.57,1.55-1,2.88t-.87,2.88l-3.84,12.1-1.53,5.18q-1.92,7.11-3.94,14t-4.13,14a10.75,10.75,0,0,0-.57,1.92c-.13.64-.26,1.21-.39,1.72a2.88,2.88,0,0,1-2.11,1.73c-.89.13-1.79.23-2.69.29s-1.79.09-2.68.09H109a22.79,22.79,0,0,1-2.88-.19,7.74,7.74,0,0,1-2.12-.19,5.79,5.79,0,0,1-3.16-1.25,6.6,6.6,0,0,1-1.44-3l-4-15.75a40.61,40.61,0,0,0-1-4.13c-.38-1.34-.76-2.71-1.15-4.12-.64-2.56-1.28-5-1.92-7.4a70.67,70.67,0,0,0-2.3-7,106.08,106.08,0,0,1-2.88-11,41.31,41.31,0,0,1-1-4.41c-.26-1.54-.52-3-.77-4.42l-2.3-9.22L77.72,45.69,71.38,20.35c-.25-.9-.48-1.8-.67-2.69S70.3,15.8,70,14.78c-.26-1.28-.48-2.53-.67-3.75a14.19,14.19,0,0,0-1.06-3.55c-.26-.77-.38-1.08-.38-1q-1-4,3.26-4,1.92,0,3.75.09c1.21.07,2.4.1,3.55.1Zm-3.65,15a14.13,14.13,0,0,0,0-3.45,9.29,9.29,0,0,0-1-2.11c-1,1-1.41,1.6-1.15,1.73.25.64.51,1.28.77,1.91A5.55,5.55,0,0,0,74.84,17.46ZM87.32,44a3,3,0,0,1,.1-.77,1.11,1.11,0,0,0-.1-.77q-.39-2.1-1-4.32c-.38-1.46-.77-2.91-1.15-4.31a1.27,1.27,0,0,0-.39-1,.55.55,0,0,0-.38-.2,1.68,1.68,0,0,1-.77-.19,12.57,12.57,0,0,0,.87,5.66,32.29,32.29,0,0,1,1.63,5.29C86.29,44,86.68,44.22,87.32,44ZM96,87.16A10.72,10.72,0,0,0,95.19,90a4.67,4.67,0,0,0,.39,1.73,1.19,1.19,0,0,0,.57.58,8.13,8.13,0,0,1,1,.57A22.79,22.79,0,0,1,96.92,90,5.53,5.53,0,0,0,96,87.16Zm6.91,6.72a4.22,4.22,0,0,1-.09,1,1,1,0,0,0,.09.77l1.73,6.14H105a31.59,31.59,0,0,0-.57-4.6A8.52,8.52,0,0,0,102.87,93.88Zm15,11.52a10.83,10.83,0,0,0,1.34-.77,2.75,2.75,0,0,0,1-1.34H118C117.53,103.42,117.46,104.12,117.85,105.4Zm11.33-45.69c.76-1.28,1.24-2.15,1.44-2.6a4.43,4.43,0,0,0-.1-2.4,23.25,23.25,0,0,0-1.25,2.5A3.68,3.68,0,0,0,129.18,59.71Zm7.29-30.34a17.05,17.05,0,0,0-2.3,5.38,23.32,23.32,0,0,0-.77,5.75,6,6,0,0,1,1.25-1,1.87,1.87,0,0,0,.86-1.34l1.73-6.72A2.13,2.13,0,0,0,136.47,29.37Z"/><path class="cls-1" d="M240.54,53.56c.25,1.79.41,3.59.48,5.38s.16,3.64.29,5.56l-.77,9.6a36.22,36.22,0,0,0-.48,4.61c-.07,1.54-.16,3.08-.29,4.61l-.58,3.46-.57,4.41a11.19,11.19,0,0,0-1,3.27,50.43,50.43,0,0,1-2.79,9.5q-1.81,4.52-3.55,9.12a9.47,9.47,0,0,1-1.25,2.88c-.57.9-1.18,1.79-1.82,2.69q-1.92,2.49-3.84,4.8a36.16,36.16,0,0,1-4.42,4.42,10.87,10.87,0,0,1-2.3,1.72c-1,.64-2.05,1.25-3.07,1.83l-3.27,1.82a7.77,7.77,0,0,1-3.45,1.15,30.7,30.7,0,0,1-4.32.48,33.58,33.58,0,0,0-4.32.48,10.07,10.07,0,0,1-4.8-.38q-2.31-.76-4.8-1.34a17.07,17.07,0,0,1-4.9-1.83,35.61,35.61,0,0,0-4.7-2.21L178,128.06l-1.35-1.35a15,15,0,0,1-3.55-3.07,35.83,35.83,0,0,1-2.78-3.84,1.76,1.76,0,0,1-.48-.67,2,2,0,0,0-.48-.67,31.49,31.49,0,0,1-3.27-5.19,41.67,41.67,0,0,1-2.3-5.56,96.85,96.85,0,0,1-4.61-20.93l-.77-7.68c-.13-1.79-.22-3.62-.29-5.47S158,70,158,68.15a30.68,30.68,0,0,1,.19-3.45c.13-1.16.25-2.37.38-3.65l1.73-14c.26-.76.48-1.53.67-2.3s.42-1.54.68-2.31l4.6-15.93a6.88,6.88,0,0,1,1-1.92c.13-.26.29-.54.48-.86s.35-.61.48-.87a11,11,0,0,1,2-4.13c1-1.21,1.89-2.4,2.78-3.55a40.35,40.35,0,0,1,7.3-6.72,49.44,49.44,0,0,1,10.56-5.57,7.26,7.26,0,0,1,2.88-.57,1.74,1.74,0,0,0,1.15,0,4.22,4.22,0,0,1,1.35-.2l3.64-.57a22.83,22.83,0,0,1,6.63.19,28.22,28.22,0,0,1,6.24,1.92c1.28.64,2.49,1.32,3.65,2s2.36,1.5,3.64,2.4a40,40,0,0,1,3.84,3.55c1.16,1.22,2.37,2.47,3.65,3.74a15.39,15.39,0,0,1,3.46,5.19c.89,1.79,1.76,3.58,2.59,5.37s1.63,3.59,2.4,5.38a32.79,32.79,0,0,1,2.69,8.45ZM161.63,81.21a1.59,1.59,0,0,0,.19-1,11.34,11.34,0,0,0-.1-1.15,15,15,0,0,1-.09-1.73,3.94,3.94,0,0,1-.2-1.54v-.57c-.13,0-.19-.07-.19-.2V69.5l-.38-1a1,1,0,0,0-.48.38,1.64,1.64,0,0,1-.29.39c-.13.12-.19.44-.19,1-.13.12-.19.51-.19,1.15v3.26a.4.4,0,0,0,.09.29.42.42,0,0,1,.1.29V76a4,4,0,0,0,.19,1.54,10.75,10.75,0,0,0,.1,1.63,8.48,8.48,0,0,1,.09,1.06,1.52,1.52,0,0,0,.19,1l.58.77ZM172,49.91c.26-.38.55-.76.87-1.15a11.65,11.65,0,0,0,1-1.53c-.64.25-1.21.51-1.72.76S171.61,48.89,172,49.91Zm8.45-9.21a32.81,32.81,0,0,0-1.25,3.74,24.42,24.42,0,0,0-.67,4.13A9.36,9.36,0,0,0,179.87,46c.25-.83.51-1.57.76-2.21a5.44,5.44,0,0,0,.58-2.5.8.8,0,0,0-.1-.38.92.92,0,0,1-.09-.39C180.63,40.5,180.44,40.57,180.44,40.7Zm40.9,34.17q.18-8.64,0-17.47c0-1.28-.07-2.52-.19-3.74a21,21,0,0,0-.77-3.75q-1-3.06-1.73-6.14c-.51-2.05-1-4.1-1.54-6.14a19.84,19.84,0,0,0-2.68-5.76q-1.94-2.31-3.94-4.33A9.67,9.67,0,0,0,205.21,25a11.73,11.73,0,0,1-2.88-1,13.5,13.5,0,0,1-1.73.58,13.5,13.5,0,0,0-1.73.58c-1,.38-2.05.8-3.07,1.24a6.85,6.85,0,0,0-2.69,2.21,59.42,59.42,0,0,0-3.93,5.19,25.68,25.68,0,0,0-3,6,17.31,17.31,0,0,0-1.15,3.55,14,14,0,0,1-1.15,3.36,28.94,28.94,0,0,0-2.4,7.49q-.67,3.84-1.06,7.68-.19,3.45-.38,6.91t-.58,7.1a24.34,24.34,0,0,0,0,6.15c.26,2,.51,4.1.77,6.14l.38,1.15,1.73,7.11c.26,1.15.54,2.24.87,3.26a19.35,19.35,0,0,0,1.24,3.07,10,10,0,0,1,1.16,2.31,22.81,22.81,0,0,0,4.22,6.33A13.3,13.3,0,0,0,202.33,116a2.85,2.85,0,0,0,1.06-.19l.86-.38a18.24,18.24,0,0,0,8.45-8.26l2.3-3.84a29.85,29.85,0,0,0,2.88-7.3l2.88-15.93c.13-.9.26-1.76.39-2.6A18,18,0,0,0,221.34,74.87ZM188.7,115.19l-.19-.19c-.13,0-.33.13-.58.39l-.58.57c0,.13.07.19.2.19v.2l.57-.58Zm33-6.91a.17.17,0,0,1-.19.19l.19.2Zm7.11-50.49a26.5,26.5,0,0,0,.38-5.19,40.62,40.62,0,0,0-.38-6,14.07,14.07,0,0,0-.68,5.76C228.35,54.2,228.57,56,228.83,57.79Zm3.26,35.32a1.55,1.55,0,0,0,.1-1,5.39,5.39,0,0,1-.1-1,31.81,31.81,0,0,0-2.3,8.26,7.59,7.59,0,0,0,1.44-3.17A18.1,18.1,0,0,1,232.09,93.11Zm5-.38-.19-.19-.19.19.38.38Z"/><path class="cls-1" d="M319.45,130a2.2,2.2,0,0,1-1,2.49,16.1,16.1,0,0,0-1.82.87,3.73,3.73,0,0,1-1.83.48q-2.88.39-5.76.57a30.69,30.69,0,0,1-5.95-.19,5,5,0,0,1-1.06-.1,7.53,7.53,0,0,1-1.05-.28,2.88,2.88,0,0,1-2.31-1.73,11.4,11.4,0,0,1-.67-1.15c-.19-.39-.42-.83-.67-1.35q-1.15-2.49-2.3-4.89t-2.31-5.09q-1-2.69-1.92-6.15l-2.11-5.95L282.39,92a30.43,30.43,0,0,0-1.63-2.88,7.57,7.57,0,0,0-2.4-2.3,2.79,2.79,0,0,0-3.26.57q-.39.59-.87,1.35a16.84,16.84,0,0,0-.86,1.53q-1.15,2.7-2.4,5.38a53.34,53.34,0,0,0-2.21,5.57,28.88,28.88,0,0,0-.57,3.55c-.13,1.22-.26,2.4-.39,3.55s-.22,2-.29,3.07-.09,2.05-.09,3.07v2.5l.57,13.63a3.76,3.76,0,0,1-.57,2.4,4.31,4.31,0,0,1-2.31,1.06,13.56,13.56,0,0,1-2.3.57l-2.3.39a27.13,27.13,0,0,1-4.52.38c-1.47,0-3-.06-4.51-.19a4.34,4.34,0,0,1-1.82-.38c-.58-.26-1.25-.51-2-.77a12.54,12.54,0,0,0-.09-1.63,9.39,9.39,0,0,1-.1-1.44q.38-4.8.38-9.6a64.83,64.83,0,0,1,.77-9.8,17.37,17.37,0,0,0,.1-3.16c-.07-1.09-.1-2.15-.1-3.17-.13-3.71-.22-7.42-.29-11.14s0-7.42.1-11.13q.38-4.43.48-8.64t.29-8.64V54.71c.12-1,.22-2,.29-2.88s.09-1.79.09-2.68c.13-2.44.16-4.8.1-7.11s-.1-4.61-.1-6.91q0-5,.1-9.79t.09-9.6V11.51q0-1.72-.09-3.45c-.07-1.16-.16-2.31-.29-3.46l2.11-2.69a10.94,10.94,0,0,1,2.11-.38h6.24c2,0,4.07.07,6.24.19,3.46,0,4.8,1.54,4,4.61a25.25,25.25,0,0,0-.87,7.2c.06,2.37.1,4.7.1,7a8.74,8.74,0,0,0,.09,1.34,3.39,3.39,0,0,1-.09,1.35l-.58,14.59q0,3.84-.09,7.49a59.35,59.35,0,0,0,.28,7.48,1.11,1.11,0,0,1,.1.77,1,1,0,0,0,.1.77,1.22,1.22,0,0,0,1.15,1.34,1.89,1.89,0,0,0,1.92-.57c.38-.77.8-1.54,1.25-2.31a13,13,0,0,0,1-2.3q2.49-5.57,5-11.14c1.67-3.71,3.39-7.42,5.19-11.13s3.48-7.2,5.09-10.85,3.23-7.33,4.89-11a10.66,10.66,0,0,1,2.59-3.84q1.25-1,5.09-1l7.11.77a17.9,17.9,0,0,0,1.92-.1c.63-.06,1.27-.1,1.92-.1a3.36,3.36,0,0,1,3.16,1.16A3.37,3.37,0,0,1,317,6.52a5.11,5.11,0,0,1-.48,1.06A5.6,5.6,0,0,0,316,8.63a19.94,19.94,0,0,0-1.63,3.27,19.46,19.46,0,0,1-1.63,3.26c-.64,1.28-1.25,2.56-1.82,3.84s-1.19,2.56-1.83,3.84c-1.41,2.56-2.75,5.16-4,7.78s-2.56,5.28-3.84,8a6.54,6.54,0,0,0-.67,1.35,15.78,15.78,0,0,1-.67,1.53A79.48,79.48,0,0,1,296.41,49a18.4,18.4,0,0,0-1.92,3.75,15.6,15.6,0,0,0-1,4.13,23.2,23.2,0,0,0,1.73,12.86q1.92,4.43,3.55,8.93T302,87.74c.77,2.68,1.66,5.34,2.69,8s2.11,5.21,3.26,7.77c.25.64.48,1.28.67,1.92s.42,1.28.67,1.92l3.84,8.83a85.37,85.37,0,0,0,4.23,8.45,9,9,0,0,1,1.34,2.69ZM253.59,89.27c.64-3.45,1.16-6.68,1.54-9.69a19.36,19.36,0,0,0-.38-7.78,19.53,19.53,0,0,0-.68,3.46c-.19,1.53-.32,3.2-.38,5s-.13,3.52-.19,5.18A22.06,22.06,0,0,0,253.59,89.27ZM267,12.09a1.93,1.93,0,0,1,.1-.67.88.88,0,0,0-.1-.67c0-.64-.25-.9-.76-.77a1.09,1.09,0,0,0-.39.77,1.64,1.64,0,0,0,.19.76l.39.77A.77.77,0,0,0,267,12.09Zm20.55,80.64-.39-.38v-.2a10.29,10.29,0,0,0-.48-3.07,30.84,30.84,0,0,0-1.24-3.26c-.52.51-.77.83-.77,1,.25,1,.54,2,.86,3a5.26,5.26,0,0,0,1.63,2.4v.2Zm16.51,10a1.12,1.12,0,0,1,.19-.77h-.19l-.77-.76V101h-.19a.74.74,0,0,0,.19-.57q-.76-2.68-1.73-5.18a24.69,24.69,0,0,0-2.49-4.81h-.19a.8.8,0,0,0-.2.58c.64,1.54,1.25,3.07,1.83,4.61s1.18,3.07,1.82,4.61a1.05,1.05,0,0,0,.39.48,1.75,1.75,0,0,1,.38.28v.2h.19c-.13.64.13.89.77.76Zm-3.84-81.4a.8.8,0,0,0,.1.38c.06.13.15.38.28.77a16.58,16.58,0,0,0,1.92-3.27c.51-1.15,1-2.23,1.54-3.26a.65.65,0,0,0,.19-.48q0-.29-.57-.48L302,17.66Z"/><path class="cls-1" d="M363.22,114.42l8.84-.38c2.94-.12,5.88-.32,8.83-.58h.38a3.8,3.8,0,0,1,2.4.48,4.32,4.32,0,0,1,.67,2.38,1.94,1.94,0,0,0,.2,1.14,13.76,13.76,0,0,1,.86,5.13c-.07,1.65-.16,3.36-.29,5.13a2.23,2.23,0,0,0-.09,1.14,7.49,7.49,0,0,1,.09,1.14,2.4,2.4,0,0,1-1.92,2.48,11.88,11.88,0,0,1-1.92.38,36,36,0,0,1-5.18.38H365.14q-3.08.19-6,.29c-2,.07-4,.22-6.05.48a138.84,138.84,0,0,0-14.21,1.15c-1,.13-2.08.26-3.17.38a26.71,26.71,0,0,1-3.17.2,12.17,12.17,0,0,1-4.22-1,1.31,1.31,0,0,1-.86-1.63,19.77,19.77,0,0,0,.48-2.6,12.54,12.54,0,0,1,.09-1.63,10.85,10.85,0,0,0,.1-1.44,11.81,11.81,0,0,0,.19-3.55,14.45,14.45,0,0,1,0-3.36,8.23,8.23,0,0,0,.1-2.21,7.87,7.87,0,0,1,.09-2.21,5.57,5.57,0,0,1,.1-1,6.33,6.33,0,0,0,.09-1,71,71,0,0,0-.19-9.12,70.94,70.94,0,0,1-.19-9.12q.2-4.6.19-9.12V77.94q0-3.25-.09-6.52c-.07-2.18,0-4.35.09-6.53q.19-5,0-9.79t0-9.79a57.59,57.59,0,0,0-.57-10.37c-.13-2.31-.17-4.58-.1-6.82s0-4.51-.1-6.81V9.59A4.69,4.69,0,0,1,327.61,8a12.54,12.54,0,0,0,.09-1.63,2,2,0,0,1,.2-1.54,12.31,12.31,0,0,0,.76-1.34Q330,.57,334,1c3.71.39,7.39.61,11,.68s7.33,0,11-.1c1.54,0,3.07,0,4.61.1s3.07.09,4.61.09c.76-.12,1.53-.22,2.3-.29s1.47-.09,2.11-.09L376.18,1a57.64,57.64,0,0,1,6.44,0,9.58,9.58,0,0,1,3.64.68c.51.32.71,1.76.58,4.31,0,.77,0,1.57-.1,2.41s-.16,1.69-.28,2.59a28.54,28.54,0,0,0-.77,7.29q0,3.47-3.65,3.46a45.42,45.42,0,0,1-6,0,43.81,43.81,0,0,1-7.3-.58,29.77,29.77,0,0,0-6.24-.09q-3,.29-6.05.29a6,6,0,0,0-5,2.49,35.36,35.36,0,0,0-2,3.84,7.87,7.87,0,0,0-.68,4,12.12,12.12,0,0,1-.19,2.21c-.13.71-.26,1.38-.38,2a13.59,13.59,0,0,0-.39,3.36v6.53a23.52,23.52,0,0,0,.2,3,13.43,13.43,0,0,0,.57,3.84,5.44,5.44,0,0,0,4.8,4.42l4.71.77a17.28,17.28,0,0,0,5.08,0,17.12,17.12,0,0,1,3.65,0h2.79a9.31,9.31,0,0,0,2.59-.39,5.53,5.53,0,0,1,1.92-.19,4.19,4.19,0,0,1,4,3.07c.25,1,.48,2.11.67,3.26a11.72,11.72,0,0,1,.1,3.27,22.13,22.13,0,0,0-.19,2.78v2.6c-.13,3.2-1.8,4.79-5,4.79h-1a34.71,34.71,0,0,0-8.44-.48,54.33,54.33,0,0,1-8.64-.09q-5.39,0-7.11,5.21a10.09,10.09,0,0,0-.48,2.32c-.06.77-.16,1.54-.29,2.31l-.38,5a56.89,56.89,0,0,0,.1,7.52,56.19,56.19,0,0,1,.09,7.34,5.2,5.2,0,0,0-.09,1.73,15.28,15.28,0,0,1,.09,1.74,4.44,4.44,0,0,0,2.88,4.24,10.09,10.09,0,0,0,4.61,1l8.06-1Zm-30-95.61a.52.52,0,0,1-.38-.19,2.12,2.12,0,0,0,.38,2.88Zm3.84,106.75.19.19v-.19Zm4.23,1.92a.4.4,0,0,1-.29-.09.38.38,0,0,0-.29-.1l-.19.19a.4.4,0,0,0,.09.29c.07.06.1,0,.1-.1A.8.8,0,0,0,341.34,127.48Zm.19-112.9a4.42,4.42,0,0,0-.39,1.35,4.31,4.31,0,0,0,.39,1.34Q343.45,15.37,341.53,14.58Zm6.72,103.3a17.43,17.43,0,0,0,2.4.39,4.14,4.14,0,0,0,1.44-.43,2.66,2.66,0,0,0-2-.29A6.74,6.74,0,0,1,348.25,117.88Zm.19-46.27.19.19.39-.38c0-.13-.07-.19-.2-.19Zm6.72,49a15.83,15.83,0,0,0-3-.1,7.94,7.94,0,0,0-3,.87,23.24,23.24,0,0,0,3.55.09A7.8,7.8,0,0,0,355.16,120.57Zm-.77-2.3.39-.58v-.19a1.45,1.45,0,0,1-.58.19.17.17,0,0,0-.19.19ZM368.22,15.93c-.77-.51-1.28-.74-1.54-.67a7.55,7.55,0,0,0-1.73,1Zm4.22-.58h.77l.19-.19a1.52,1.52,0,0,1-1-.19Z"/><path class="cls-1" d="M460,75.24a3.81,3.81,0,0,1,.56,4.77l-2.8,4.34a19.93,19.93,0,0,1-2.53,3.09c-.93.93-1.91,1.87-2.94,2.8-.84.75-1.71,1.5-2.59,2.24a26,26,0,0,1-2.88,2.11,15.79,15.79,0,0,1-2.31,1.19c-.8.33-1.57.63-2.32.91a32.15,32.15,0,0,1-12.47,1,2.41,2.41,0,0,1-1.12-.28q-2.25-1-4.42-1.82A18.91,18.91,0,0,1,420,93.33l-1.54-1.41a2.76,2.76,0,0,1-.42-.49,1.06,1.06,0,0,0-.42-.35A8.65,8.65,0,0,1,415,88.35c-.66-1.07-1.31-2.17-2-3.3a32.85,32.85,0,0,1-2-3.5,21.24,21.24,0,0,1-1.47-3.79,5,5,0,0,0-.7-2.24,16.1,16.1,0,0,1-1.69-5,53.32,53.32,0,0,1-.56-5.32l-.42-3.09a14.19,14.19,0,0,1-.21-3.22,23.65,23.65,0,0,1,.35-3.23,6.93,6.93,0,0,1,.07-1,5.7,5.7,0,0,0,.07-1,53.57,53.57,0,0,1,.35-6.1c.24-2,.54-4,.92-6.1l.42-3.08q.56-2.67,1-5.26t1.12-5.26a32.34,32.34,0,0,1,4.49-10.23l2.8-4.35A9,9,0,0,1,419,11.38a20.23,20.23,0,0,0,1.68-1.75,30.79,30.79,0,0,1,7-5.89A22.19,22.19,0,0,1,436.56.09,5.46,5.46,0,0,1,438,0c.51.05,1,.07,1.47.07.93.19,1.45.28,1.54.28a15.26,15.26,0,0,1,6.1,1.48,34.4,34.4,0,0,1,5.4,3.29A23.41,23.41,0,0,1,456,8.43c1,1.17,2,2.41,3,3.72a7.63,7.63,0,0,1,.7,1.12c.19.38.37.8.56,1.26a1.78,1.78,0,0,1,.14,1.13c-.19.37-.35.72-.49,1.05a5,5,0,0,1-.63,1.05,24.83,24.83,0,0,1-6.73,6,2.41,2.41,0,0,1-3.65-.28c-.28-.28-.58-.56-.91-.84a3.19,3.19,0,0,1-.77-1,7.51,7.51,0,0,0-1.4-2L444.13,18a4,4,0,0,0-3.37-1.68,8.06,8.06,0,0,0-5,1.26A26.08,26.08,0,0,0,430.81,22a22.65,22.65,0,0,0-3.51,5.68c-.18.38-.35.75-.49,1.12s-.3.8-.49,1.27a9,9,0,0,0-1.4,3.92,4.25,4.25,0,0,0-.42,1.12A33,33,0,0,0,423,40.26c-.38,1.73-.7,3.48-1,5.26a9.93,9.93,0,0,0-.14,1.75v7.78l.28,3.51c.09.93.16,1.87.21,2.8a17.71,17.71,0,0,0,.35,2.8c0,.57,0,1.13.07,1.69s.11,1.17.21,1.82c.18.84.37,1.68.56,2.52a7.41,7.41,0,0,0,1,2.39l1.68,3.5a12.34,12.34,0,0,0,12.76,6.31,6.85,6.85,0,0,0,3.65-1.82q1.68-1.54,3.22-3.09a10.38,10.38,0,0,0,2.38-3.78,10.63,10.63,0,0,1,1.26-2.11,2.77,2.77,0,0,1,3.65-1.26q.84.28,1.68.63A4.78,4.78,0,0,1,456.32,72a16.69,16.69,0,0,0,1.34,1.19L459,74.26Zm-37.29-.14c.37-.65.37-1.17,0-1.54a2.46,2.46,0,0,1-.7-1.82,2.37,2.37,0,0,1-.28-1.06,3.34,3.34,0,0,0-.29-1.19c0-.46,0-.74-.14-.84a1,1,0,0,0-.14-1.12l-.84-.84a8.42,8.42,0,0,1-.07,1.12,1.12,1.12,0,0,0,.35,1c.1.47.19.89.28,1.26s.19.75.28,1.12a1.51,1.51,0,0,1-.07.5c0,.14,0,.25.21.35a1.68,1.68,0,0,0,.22.91,4.18,4.18,0,0,1,.35.77,2.32,2.32,0,0,0,.42.77A4.29,4.29,0,0,1,422.68,75.1Zm-2.11-35a5.09,5.09,0,0,0,.28,1.54,4.72,4.72,0,0,0,.28-.63c.1-.23.19-.49.28-.77a1.13,1.13,0,0,1,.08-.35,1.75,1.75,0,0,0,.07-.49.53.53,0,0,1,.14-.42v-.28c0-.19,0-.3.07-.35a.6.6,0,0,0,.07-.35c0-.19,0-.28.14-.28v-.42a.84.84,0,0,0,.14-.56.4.4,0,0,1,.14-.29v-.28a.56.56,0,0,1,.14-.42,3.93,3.93,0,0,0,.42-1.12,10.09,10.09,0,0,0,.42-1.33,3.82,3.82,0,0,1,.28-.91,5.09,5.09,0,0,0,.28-1.54,3.41,3.41,0,0,0-1,1.26L422,34.3l-.28,1.12a.56.56,0,0,0-.14.42c0,.1-.05.14-.15.14v.14a.53.53,0,0,1-.14.42.8.8,0,0,1-.14.57v.28a.56.56,0,0,1-.14.42c0,.37,0,.61-.14.7v.28a.38.38,0,0,1-.14.28,2.15,2.15,0,0,1-.07.56A2.54,2.54,0,0,0,420.57,40.05ZM428.28,7a6.38,6.38,0,0,0-4.34,3.79,26.49,26.49,0,0,1,2.17-2C426.81,8.22,427.54,7.62,428.28,7Zm3.51,3.93c-1.68.75-2.71,1.54-3.08,2.38.56.19.88.24,1,.14A6.72,6.72,0,0,0,431.79,10.89Zm.14,76.55c.47.47.77.7.91.7s.35-.19.63-.56a4.76,4.76,0,0,1-.84-.07A4,4,0,0,0,431.93,87.44Zm4.77-85h.14V2.34Z"/><path class="cls-1" d="M526.28,38.37a37.32,37.32,0,0,1,.36,3.92c0,1.31.11,2.67.21,4.07l-.57,7a29.44,29.44,0,0,0-.35,3.36c0,1.13-.11,2.25-.21,3.37l-.42,2.52-.42,3.23a8.46,8.46,0,0,0-.7,2.38,37.13,37.13,0,0,1-2,6.94q-1.33,3.3-2.59,6.66a7,7,0,0,1-.92,2.1c-.42.66-.86,1.31-1.33,2-.93,1.21-1.87,2.38-2.8,3.5a26.62,26.62,0,0,1-3.23,3.23,8.57,8.57,0,0,1-1.68,1.26c-.75.47-1.5.91-2.24,1.33L505,96.55a5.67,5.67,0,0,1-2.52.84,21.84,21.84,0,0,1-3.15.35,25,25,0,0,0-3.16.35,7.37,7.37,0,0,1-3.5-.28c-1.12-.37-2.29-.7-3.51-1a12.38,12.38,0,0,1-3.57-1.33,25.86,25.86,0,0,0-3.44-1.61l-1.54-1.12-1-1a11.19,11.19,0,0,1-2.6-2.24,26.24,26.24,0,0,1-2-2.8,1.41,1.41,0,0,1-.35-.49,1.32,1.32,0,0,0-.35-.49A23.48,23.48,0,0,1,471.89,82a30.32,30.32,0,0,1-1.69-4.07,70.79,70.79,0,0,1-3.36-15.28L466.28,57c-.1-1.3-.16-2.64-.21-4s-.07-2.69-.07-4a21.28,21.28,0,0,1,.14-2.52c.09-.84.19-1.73.28-2.66l1.26-10.24c.19-.56.35-1.12.49-1.68s.3-1.12.49-1.68L472,18.6a4.7,4.7,0,0,1,.7-1.4,7.11,7.11,0,0,1,.35-.63c.14-.24.26-.45.35-.63a7.88,7.88,0,0,1,1.47-3c.7-.89,1.38-1.75,2-2.59a29.46,29.46,0,0,1,5.33-4.91A36,36,0,0,1,490,1.35a5.33,5.33,0,0,1,2.11-.42,1.21,1.21,0,0,0,.84,0,3.17,3.17,0,0,1,1-.14l2.66-.42a16.93,16.93,0,0,1,4.84.14A20.33,20.33,0,0,1,506,1.92c.93.46,1.82,1,2.66,1.47s1.73,1.1,2.66,1.75a30.79,30.79,0,0,1,2.81,2.59c.84.89,1.73,1.8,2.66,2.74a11.19,11.19,0,0,1,2.52,3.78c.66,1.31,1.29,2.62,1.9,3.93s1.19,2.62,1.75,3.92a23.86,23.86,0,0,1,2,6.17ZM468.66,58.56a1.15,1.15,0,0,0,.14-.7,6.88,6.88,0,0,0-.07-.85,9.55,9.55,0,0,1-.07-1.26,3,3,0,0,1-.14-1.12v-.42a.13.13,0,0,1-.14-.14V50l-.28-.7a.83.83,0,0,0-.35.28,1.08,1.08,0,0,1-.21.28,1.17,1.17,0,0,0-.14.71,1.47,1.47,0,0,0-.14.84v2.38a.28.28,0,0,0,.07.21.28.28,0,0,1,.07.21v.56a3,3,0,0,0,.14,1.12,8,8,0,0,0,.07,1.19,5.39,5.39,0,0,1,.07.78,1.15,1.15,0,0,0,.14.7l.42.56Zm7.57-22.86q.28-.42.63-.84a9.11,9.11,0,0,0,.78-1.12c-.47.19-.89.38-1.27.56S476,35,476.23,35.7ZM482.4,29a23.74,23.74,0,0,0-.91,2.74,17.69,17.69,0,0,0-.49,3,6.59,6.59,0,0,0,1-1.89c.19-.61.37-1.14.56-1.61a4,4,0,0,0,.42-1.83.61.61,0,0,0-.07-.28.55.55,0,0,1-.07-.28C482.54,28.83,482.4,28.88,482.4,29Zm29.86,25q.15-6.32,0-12.76a24.46,24.46,0,0,0-.14-2.73,14.83,14.83,0,0,0-.56-2.74c-.47-1.49-.89-3-1.26-4.48s-.75-3-1.12-4.49a14.52,14.52,0,0,0-2-4.2q-1.41-1.7-2.88-3.16a7,7,0,0,0-3.85-1.89,9.12,9.12,0,0,1-2.1-.7,8.92,8.92,0,0,1-1.27.42,9.26,9.26,0,0,0-1.26.42c-.75.28-1.49.58-2.24.91a4.9,4.9,0,0,0-2,1.61,45.55,45.55,0,0,0-2.88,3.79,18.74,18.74,0,0,0-2.17,4.34,12.14,12.14,0,0,0-.84,2.6,10.4,10.4,0,0,1-.84,2.45,21.16,21.16,0,0,0-1.76,5.47c-.33,1.87-.58,3.74-.77,5.61-.09,1.68-.19,3.36-.28,5s-.23,3.42-.42,5.19a17.76,17.76,0,0,0,0,4.49c.19,1.49.37,3,.56,4.48l.28.84,1.26,5.19c.19.84.4,1.64.64,2.39a14.43,14.43,0,0,0,.91,2.24,7.33,7.33,0,0,1,.84,1.68,16.49,16.49,0,0,0,3.08,4.63,9.73,9.73,0,0,0,9.12,3.36,2,2,0,0,0,.77-.14,6.24,6.24,0,0,0,.63-.28,13.27,13.27,0,0,0,6.17-6l1.68-2.8a22.08,22.08,0,0,0,2.1-5.33l2.1-11.63c.1-.66.19-1.29.28-1.9A11.59,11.59,0,0,0,512.26,53.93ZM488.43,83.37l-.14-.14c-.09,0-.23.1-.42.28l-.42.42a.12.12,0,0,0,.14.14v.14l.42-.42Zm24.12-5.05c0,.1,0,.14-.15.14l.15.15Zm5.18-36.87a18.58,18.58,0,0,0,.28-3.78,28.68,28.68,0,0,0-.28-4.35,10.34,10.34,0,0,0-.49,4.21C517.38,38.84,517.54,40.14,517.73,41.45Zm2.39,25.8a1.21,1.21,0,0,0,.07-.7,4,4,0,0,1-.07-.7,22.81,22.81,0,0,0-1.69,6,5.45,5.45,0,0,0,1.06-2.32A13.15,13.15,0,0,1,520.12,67.25Zm3.64-.28-.14-.14-.14.14.28.28Z"/><path class="cls-1" d="M466.07,114.14h12.12c1.88.13,3.79.23,5.72.29s3.85.1,5.73.1a4.35,4.35,0,0,1,.92.09,3,3,0,0,0,.74.1,47.39,47.39,0,0,1,7.31-.58c2.43,0,4.87.07,7.3.2l9.3.57a7.47,7.47,0,0,1,2.66.39,4.39,4.39,0,0,1,2.32,1.72,7,7,0,0,1,.5,3.08v.57a30.76,30.76,0,0,0,.17,7.3,22.38,22.38,0,0,1,0,3.84q-.35,3.45-3.16,3.45H516a4.16,4.16,0,0,1-1.74-.38,12.47,12.47,0,0,0-5-.19c-.89.12-1.78.22-2.66.29s-1.77.09-2.66.09q-4.65,0-9.3.1t-9.29-.1c-1.56,0-3-.06-4.4-.19s-2.86-.26-4.4-.38l-17.94-.58-3-.38a23.22,23.22,0,0,0-3-.2h-10.8q-5.47,0-10.95-.19a32.05,32.05,0,0,1-3.57-.19,16.39,16.39,0,0,0-3.57,0,38.71,38.71,0,0,1-6,.29,59.7,59.7,0,0,0-6,.09h-1.49A2.67,2.67,0,0,1,409,133a7.83,7.83,0,0,1-1.91-1.73,4.26,4.26,0,0,1-.75-2.69c0-1.79-.05-3.49-.16-5.08s-.17-3.3-.17-5.09a12.53,12.53,0,0,1,.5-3.46,2,2,0,0,1,2.49-1.73c.55.13,1.05.23,1.49.29a8.87,8.87,0,0,0,1,.1,14.62,14.62,0,0,0,2.24.19h25.49l18.59.58h8.31ZM414.26,129.5l-.83.77a32.16,32.16,0,0,0,4,.1,5,5,0,0,0,1.82-.67Zm30.06-10.36c0,.63.44,1.08,1.32,1.34h2.16l9.8-.58a4.82,4.82,0,0,0,.83-.09,4.1,4.1,0,0,1,.83-.1v-.38c-2.55,0-5,0-7.47-.1S446.86,119.14,444.32,119.14Zm14.11,10a8.59,8.59,0,0,0-3.82-.29,28.48,28.48,0,0,0-4,.87c1.44.12,2.8.19,4.07.19A9.63,9.63,0,0,0,458.43,129.12Zm49.14-10.56a1,1,0,0,0-1.16-1.15c-1.55-.26-2.65.06-3.32,1A11,11,0,0,0,507.57,118.56Z"/></g></g></svg>