<svg xmlns="http://www.w3.org/2000/svg" viewBox="0 0 805 243.78"><defs><style>.cls-1{fill:#fff;}</style></defs><title>Ativo 1</title><g id="Camada_2" data-name="Camada 2"><g id="Camada_1-2" data-name="Camada 1"><path class="cls-1" d="M251.05,170.67a3.24,3.24,0,0,1,.41,4.53,4,4,0,0,1-2.06,1.65q-8.64,4.11-15.65,3.91a33.81,33.81,0,0,1-11.95-2.26,35.23,35.23,0,0,1-10.71-6.18q-2.9-2.48-4.33-3.92a13.54,13.54,0,0,1-2.26-2.88,27,27,0,0,1-1.65-3.5,36.08,36.08,0,0,0-2.89-5.36,166.67,166.67,0,0,0-11.33-21.83,111.06,111.06,0,0,0-18.33-22.66q-9.06,11.53-23.07,27.19a364.1,364.1,0,0,1-30.08,29.87A220.69,220.69,0,0,1,85,193.12q-16.08,9.67-28.84,9.69-11.55,0-19-4.74a49.79,49.79,0,0,1-11.94-10.3,38.32,38.32,0,0,1-6.39-10.51,32.64,32.64,0,0,0-2.27-5.36,4.46,4.46,0,0,1,.21-1.44A4.46,4.46,0,0,0,17,169a3.49,3.49,0,0,1,.61-1.44,3.46,3.46,0,0,1,2.27-1.44c2.47-.83,4.39,0,5.77,2.47.55.55,1.58,1.44,3.09,2.68a10.65,10.65,0,0,0,5.56,2.26h.82q11.54.4,26-6.38a184.37,184.37,0,0,0,29.66-17.92,375.77,375.77,0,0,0,30.7-25.14q15.45-14,29.05-27.6A124.63,124.63,0,0,0,127,85.38a111.29,111.29,0,0,0-28.43-5.76q-17.72-1.25-31.1,1.44a98.79,98.79,0,0,0-23.28,7.42,77.67,77.67,0,0,0-16.07,9.88,92,92,0,0,0-9.48,8.86,19.28,19.28,0,0,0-3.29,5,9.34,9.34,0,0,0-.82,2.88v.82a8.33,8.33,0,0,1-2.06,4.95,2.41,2.41,0,0,1-1.65.82c-1.93.56-3.44.28-4.54-.82a10.92,10.92,0,0,1-2.47-3.71,28.49,28.49,0,0,1-2.06-5.77Q-2.33,92.39,3,80.65A41.85,41.85,0,0,1,18.68,62.31a65.64,65.64,0,0,1,23.49-9.06,149.92,149.92,0,0,1,24.92-2.68,176.14,176.14,0,0,1,20,.62q8.24.83,8.65.82,23.47,4.13,40.58,11.54a150.62,150.62,0,0,1,29.87,16.89q11.13-11.94,19.37-21.22l11.53-13q5.35-5.78,11.95-13t13.59-13.8A169.38,169.38,0,0,1,236.43,7.72a38.49,38.49,0,0,1,13-6.8A11.41,11.41,0,0,1,255.17.1a26.31,26.31,0,0,1,8.24,2.06,58.26,58.26,0,0,1,7,3.71,44,44,0,0,1,9.06,8.24A7.73,7.73,0,0,1,280.1,16a5.05,5.05,0,0,1-1,3.09q-3.3,3.72-9.27,12.16a182.88,182.88,0,0,0-12.36,20.6Q251.05,64,244.87,78.59a143.74,143.74,0,0,0-9.06,30.69q-3.7,18.54-2.27,29.87t4.74,17.92q3.3,6.6,7.42,9.48A47.73,47.73,0,0,1,251.05,170.67Zm-51.5-51.5a150.27,150.27,0,0,1,10.3-31.11,295.51,295.51,0,0,1,14-27.39A254.75,254.75,0,0,1,242,33.88q-3.7,0-10.3,5.77a184.18,184.18,0,0,0-14.63,14.63q-8,8.86-16.89,19.78T182.66,95.69a74.46,74.46,0,0,1,9.68,11.74Q196.26,113.4,199.55,119.17Z"/><path class="cls-1" d="M275,165.73q-10.31-1.24-16.28-3.71a30.72,30.72,0,0,1-9.27-5.56,13.32,13.32,0,0,1-4.12-7,28.84,28.84,0,0,1-.41-8.44q1.65-10.31,3.91-19.16A125.63,125.63,0,0,1,254.35,105q3.29-8,7.21-16.07t8.85-17.51c1.38-2.2,3.51-3,6.39-2.48a18.6,18.6,0,0,1,5.56,1.65c.55.28,1.3.62,2.27,1a16.74,16.74,0,0,1,3.5,2.27,21.34,21.34,0,0,1,4.12,4.94q2.47,3.72-.41,8.66-2.07,3.3-4.53,8.24t-4.95,10.71c-.55,1.37-1.1,2.68-1.65,3.91s-1.1,2.54-1.64,3.92c.82-1.1,2.53-3.23,5.15-6.39a113.76,113.76,0,0,1,10.09-10.51q6.18-5.76,14-11.74A87.36,87.36,0,0,1,325.21,75.5a3.72,3.72,0,0,1,2.06-1,3.72,3.72,0,0,0,2.06-1,29.15,29.15,0,0,1,7.21-1.65,7.65,7.65,0,0,1,6.8,2.88q4.53,4.55,3.09,10.1a40.21,40.21,0,0,1-3.5,9.27q-1.24,2.88-2.68,6t-3.09,6.39c-.83,2.2-1.72,4.46-2.68,6.8s-1.85,4.6-2.68,6.79a89,89,0,0,0-3.91,24.11q-.21,11.73,5.56,18.74a9.35,9.35,0,0,1,1.24,2.89c.27,1.09-.28,1.91-1.65,2.47q-2.48.81-6,1.85a33.79,33.79,0,0,1-7.82,1.24,44.21,44.21,0,0,1-9.27-.62,29.12,29.12,0,0,1-9.89-3.71,4.83,4.83,0,0,1-2.47-2.88,13.38,13.38,0,0,0-.83-2.47,122.58,122.58,0,0,1,.21-15.46q.61-10.5,5.56-25.75.82-2.87,2.06-6.17a51.05,51.05,0,0,1,3.3-7v-.82c-.56-.27-1-.27-1.24,0A106.52,106.52,0,0,0,297.4,114,51,51,0,0,0,289,124.11a53.67,53.67,0,0,0-8.24,19.37c-.55,3.29-1,6.32-1.23,9.06s-.41,5-.41,6.59a10.27,10.27,0,0,1-.42,3.71,8.78,8.78,0,0,1-2.47,2.89Q275.36,166.14,275,165.73Z"/><path class="cls-1" d="M413.38,34.71q-4.54,6.18-9.89,14.83T392.57,68.49Q387,78.8,381.86,90.54t-9.27,24.1a3.39,3.39,0,0,0-.41,1,3.71,3.71,0,0,1-.41,1q-1.25,3.3-4.33,14.21a79.16,79.16,0,0,0-3.09,21.63,19.44,19.44,0,0,0,1.44,7.83,15.52,15.52,0,0,1,1.44,6.18c0,1.65-.61,2.68-1.85,3.09a10.29,10.29,0,0,1-3.09.62l-6-1.24a21.85,21.85,0,0,1-7.83-3.5,23.55,23.55,0,0,1-6.8-7.42q-2.88-4.72-2.88-13a67.34,67.34,0,0,1,2.06-16.48q2.06-8.25,4.12-14,.4-1.65,3.7-10.51t7.83-20.8q4.53-12,10.3-25.55t11.95-25.13a108.71,108.71,0,0,0-23.9,2.68q-12,2.69-24.72,4.32-12.36,1.24-20.6-.2t-13-4.74a19.73,19.73,0,0,1-6.8-7.62,20.47,20.47,0,0,1-2.06-8.86A39.46,39.46,0,0,1,289.16,10c1-3.84,2.68-5.77,5.15-5.77.82,0,2.27.69,4.33,2.06A58.8,58.8,0,0,0,308.11,11,96.92,96.92,0,0,0,325.21,16a152.26,152.26,0,0,0,27.19,2.68c5.77.28,9.48.41,11.13.41a28.92,28.92,0,0,0,3.91-.2,37.11,37.11,0,0,1,4.74-.21q3.29,0,14,.41a65.72,65.72,0,0,1,9.47-11.53c2.74-2.47,7.42-3.71,14-3.71h1.65a18.36,18.36,0,0,1,6,1.24,17.09,17.09,0,0,1,6.39,4.12c1.92,1.92,3,4.67,3.29,8.23,0,1.11-.82,2.48-2.47,4.13a95,95,0,0,1,10.92.82,61.5,61.5,0,0,1,13.18,3.09,36.38,36.38,0,0,1,11.13,6.18,12.51,12.51,0,0,1,4.74,10.09q0,7-4.54,9.27a44,44,0,0,1-7.41,3.09c-1.38,0-2.2-.54-2.47-1.65q-.42-4.11-4.33-7.62A32.45,32.45,0,0,0,436.24,39a65,65,0,0,0-11.74-3.51A40.43,40.43,0,0,0,413.38,34.71Z"/><path class="cls-1" d="M421.62,73.85a16.25,16.25,0,0,1,4.53,4.94c1.65,2.48,1.5,5.36-.41,8.66q-2.07,3.3-4.54,8.24t-4.94,10.71a58.24,58.24,0,0,0-2.88,6.8c-.83,2.33-1.65,4.6-2.48,6.79a76.22,76.22,0,0,0-4.12,24.11q0,11.73,5.36,18.74a14.16,14.16,0,0,1,1.44,2.89c.41,1.09-.07,1.91-1.44,2.47q-2.47.81-6,1.85a34,34,0,0,1-7.83,1.24,44.21,44.21,0,0,1-9.27-.62,29.2,29.2,0,0,1-9.89-3.71,4.83,4.83,0,0,1-2.47-2.88,12,12,0,0,0-.83-2.47q-.81-5.78.21-17.72t7.62-29.66q7-19.37,13.39-30.7t7.21-12.15c1.37-2.2,3.43-3,6.18-2.48a26.63,26.63,0,0,1,5.77,1.65l2.06,1A21.51,21.51,0,0,1,421.62,73.85ZM459.52,36q2.48,4.53-1.85,8.44A58.11,58.11,0,0,1,446.54,52q-6.8,3.72-13.59,7T424.5,65.2a2.37,2.37,0,0,1-1.65.82c-.55,0-1.58-.06-3.09-.2A16.45,16.45,0,0,1,414.2,64a11.24,11.24,0,0,1-4.94-4.53,13.37,13.37,0,0,1-2.06-6q-.42-3.51,2.88-9.27A26.82,26.82,0,0,1,421,33.68a42.71,42.71,0,0,1,14.83-4.94,34.68,34.68,0,0,1,14.21.82Q456.64,31.42,459.52,36Z"/><path class="cls-1" d="M442.63,170.26a26.28,26.28,0,0,1-4.33-.62,25.28,25.28,0,0,1-6.38-2.27,31.52,31.52,0,0,1-6.8-4.74,17.87,17.87,0,0,1-5.15-8,25.29,25.29,0,0,1-1.65-9.47,60.52,60.52,0,0,1,1-10.92q1-5.57,2.47-10.71c1-3.44,1.86-6.39,2.68-8.86q.4-1.65,3.3-10.1T435,84.36q4.32-11.74,9.88-25.14T456.64,34.3A130.23,130.23,0,0,1,469.2,14.73q6.39-8,12.16-9.68a3.13,3.13,0,0,0,1.23-.42,9.21,9.21,0,0,0,1.85-.2,13.9,13.9,0,0,1,2.68-.21,61.87,61.87,0,0,1,6.6.41,20.12,20.12,0,0,1,7.21,2.27,21,21,0,0,1,6.38,5.36q2.88,3.49,3.71,9.68v.82a1.7,1.7,0,0,1-.41,1.24,2.27,2.27,0,0,1-1.44.82,3.38,3.38,0,0,0-1.45.41q-4.53,1.24-11.12,8.86a155.55,155.55,0,0,0-14.21,20q-7.63,12.36-15.66,28.43t-15.45,34.2q1.64-2.48,7.21-9.48a170.74,170.74,0,0,1,13-14.42,120,120,0,0,1,16.27-13.59q8.85-6.18,17.1-7a23.71,23.71,0,0,1,9.89.41,18.33,18.33,0,0,1,7,3.3q3.3,2.48,4.12,8.24.4,5.35-4.32,14.83a147.81,147.81,0,0,0-8.45,21A75.93,75.93,0,0,0,509,144.1q0,11.73,5.36,18.74a14.7,14.7,0,0,1,1.44,2.89c.41,1.09-.07,1.91-1.44,2.47-1.65.54-3.65,1.16-6,1.85a33.88,33.88,0,0,1-7.83,1.24,44.29,44.29,0,0,1-9.27-.62,29.15,29.15,0,0,1-9.88-3.71,4.85,4.85,0,0,1-2.48-2.88,12.77,12.77,0,0,0-.82-2.47,70.72,70.72,0,0,1-.21-9.89,99.14,99.14,0,0,1,1.86-14.84,165.37,165.37,0,0,1,5.15-19.56,136.22,136.22,0,0,1,10.5-23.69,4.46,4.46,0,0,0,.83-2.48c0-1.37-1.38-1.64-4.12-.82a64,64,0,0,0-7.42,5.36,86.86,86.86,0,0,0-13,13.39,119.15,119.15,0,0,0-13.8,22A116.61,116.61,0,0,0,448,162Q446.75,171.49,442.63,170.26Z"/><path class="cls-1" d="M612,73a20.8,20.8,0,0,1,5.15,2.67c2.33,1.52,3.36,3.37,3.09,5.57q0,8.64-3.92,21.42a187.87,187.87,0,0,1-10.09,25.75,174.94,174.94,0,0,1-14,24.31q-7.83,11.33-16.07,17.51h12.36a9.38,9.38,0,0,1,1.86.2,9.28,9.28,0,0,0,1.85.21,36.38,36.38,0,0,1,12,4.12q6.18,3.28,7.83,12,2.06,13.17-2.89,22.86t-9.47,14.22A79.12,79.12,0,0,1,581.68,237a57.43,57.43,0,0,1-24.52,6.59q-15.66,1.24-23.48-5.56a31.87,31.87,0,0,1-10.3-16.68,50.48,50.48,0,0,1-1-19.78q1.44-9.88,4.32-14.42-5.77-.83-18.54.62t-30.07,8c-2.74,1.1-5.63,2.2-8.65,3.3q-4.12,1.64-9.48,3.71t-11.12,4.94c-2.48,1.37-6.11,3.15-10.92,5.36s-10.23,4.46-16.28,6.79a157.07,157.07,0,0,1-19.15,6,82,82,0,0,1-19.57,2.47q-20.19.41-28.43-9.68t-5.77-24.93a29.64,29.64,0,0,1,1.65-2.68c.82-1.23,2.2-1.3,4.12-.2a71.51,71.51,0,0,0,7,2.88A46.19,46.19,0,0,0,373,196a120.72,120.72,0,0,0,17.3,0,166.18,166.18,0,0,0,23.9-3.5q16.07-3.31,27.81-6.6t22.86-6Q476,177.26,488,175.2t28.42-3.3a55.55,55.55,0,0,1,12,.42,35.62,35.62,0,0,1,8.24,2.47c2.47,1.09,3.43,3,2.89,5.77a50.28,50.28,0,0,1-2.48,10.3,28.14,28.14,0,0,0-1.44,11.95q.62,5.76,6.18,9.68t20,3.91a43.79,43.79,0,0,0,14-3.29,67.25,67.25,0,0,0,12.36-7.21q6.59-4.76,12.36-14.22a7.89,7.89,0,0,0,.41-2.47c0-1.65-.68-2.61-2.06-2.89a52.39,52.39,0,0,0-8-.61,55.3,55.3,0,0,0-13.8,1.44,48.45,48.45,0,0,0-13.6,5.15,14.37,14.37,0,0,0-7.41,10.51,2.65,2.65,0,0,1-1.24,1.64c-.55.27-1,.27-1.24,0a25.71,25.71,0,0,1-7.82-3.91q-4.54-3.09-4.12-10.92,1.23-11.53,17.3-16.48h-.41q-4.12-.82-4.12-3.29a3.58,3.58,0,0,1,1.23-2.48,6.31,6.31,0,0,1,1.65-1.23,18,18,0,0,0,4.12-3.3,20.22,20.22,0,0,0,2.27-2.68c.68-1,1.3-1.85,1.85-2.67a55.36,55.36,0,0,0,5.56-9.07c1.79-3.57,3.36-7,4.74-10.3q.82-2.06,1.86-4.53t1.85-4.94a201.3,201.3,0,0,1-12.15,19.15A67.5,67.5,0,0,1,553.87,162c-2.21,1.92-4.12,3-5.77,3.29a9.69,9.69,0,0,1-4.12,1.24q-15.66,1.23-21.63-10.71t1-35.44a18.21,18.21,0,0,0,.62-2.47,7.39,7.39,0,0,1,.61-2.06,2.38,2.38,0,0,0,.42-1.64q7-19.37,13.59-30.7t7-12.15c1.37-2.2,3.5-3,6.38-2.48a18.5,18.5,0,0,1,5.56,1.65c.55.28,1.3.62,2.27,1a16.74,16.74,0,0,1,3.5,2.27,21.09,21.09,0,0,1,4.12,4.94q2.47,3.72-.41,8.66c-1.38,2.2-2.88,4.94-4.53,8.24s-3.3,6.86-4.95,10.71c-.55,1.37-1.1,2.68-1.64,3.91s-1.11,2.54-1.65,3.92v.82a37.51,37.51,0,0,0-1.65,6,76.23,76.23,0,0,0-1.24,7.83,19.18,19.18,0,0,0,.42,7,4.26,4.26,0,0,0,3.7,3.5,3.72,3.72,0,0,0,1.65-.41q2.88-1.24,7-6T573,121.64q4.74-6.58,9.27-14.21t7.83-14.63a1.19,1.19,0,0,0,.41-.82,3.16,3.16,0,0,1,.42-1.24,114.88,114.88,0,0,0,2.47-11.53c1.09-3.85,3.09-6.11,6-6.8a30.67,30.67,0,0,1,6.39-1,37,37,0,0,1,3.91.82A14,14,0,0,1,612,73Z"/><path class="cls-1" d="M669.64,126.17q2.05,1.65,0,5.36a73.07,73.07,0,0,1-4.95,7.62,50.26,50.26,0,0,0-4.53,7.21q-1.65,3.3,1.24,4.53,2.05.84,5.56-3.29a79.5,79.5,0,0,0,7.41-10.72q3.92-6.58,7.83-14.83t6.59-15.65a57.36,57.36,0,0,0,3.3-13.19q.61-5.76-1.44-7.41-3.71-2.47-11.13,2.47a86.05,86.05,0,0,0-15.45,13.8,124.22,124.22,0,0,0-14.83,20.4,70.48,70.48,0,0,0-8.86,22.24q-7,25.56-7.62,42.85t.21,20.6a17.59,17.59,0,0,1,.41,4.12,1.78,1.78,0,0,1,0,1.65c-.28.55-.55,1.09-.82,1.65q-4.54,4.53-10.1,3.7c-3.71-.55-6-1.1-6.8-1.64a19.29,19.29,0,0,1-4.94-3.3,23.81,23.81,0,0,1-3.71-3.71c-.82-1.1-1.5-2.06-2.06-2.88a.36.36,0,0,0-.41-.41l-.82-1.65q-2.47-6.6-1-18.54a198.12,198.12,0,0,1,4.94-25.54q3.51-13.61,8.24-27.4t9.27-24.52A264.46,264.46,0,0,1,637.71,82.3q5.55-10.1,6.38-10.92c1.37-2.2,3.43-3,6.18-2.48A26.63,26.63,0,0,1,656,70.55l2.06,1a21.51,21.51,0,0,1,3.3,2.27,16.25,16.25,0,0,1,4.53,4.94q2.48,3.72-.41,8.66c-.56.55-.56.34,0-.62s.54-.76,0,.62a57,57,0,0,1,7.21-6A47.1,47.1,0,0,1,682,76.32a27.58,27.58,0,0,1,10.71-2.06,25.62,25.62,0,0,1,11.53,2.89c3.3,1.64,5.5,4.6,6.6,8.85a48.38,48.38,0,0,1,1.23,14.42,82.32,82.32,0,0,1-2.68,16.69,158.7,158.7,0,0,1-4.73,15.24,82.55,82.55,0,0,1-10.3,17.51,42.58,42.58,0,0,1-15.66,12.57,26.24,26.24,0,0,1-8.24,2.88,23.39,23.39,0,0,1-8.24.21,20,20,0,0,1-9.06-3.91,14.52,14.52,0,0,1-6.18-7.42,23.77,23.77,0,0,1-1.45-9.27,23.12,23.12,0,0,1,2.27-9.06,26.94,26.94,0,0,1,5.36-7.63,23.31,23.31,0,0,1,7.21-3.7Q665.1,122.88,669.64,126.17Z"/><path class="cls-1" d="M803.94,116.29q2.47,2.05-.82,6.59a174.58,174.58,0,0,1-10.92,14A113.52,113.52,0,0,1,774.08,154a81.94,81.94,0,0,1-22.87,12.36,37.24,37.24,0,0,1-24.72.21q-11.54-3.7-15.24-13a37.39,37.39,0,0,1-1.86-20.39,73.83,73.83,0,0,1,8-22.66,101.85,101.85,0,0,1,14.42-20.6,95.87,95.87,0,0,1,10.91-10.1A63.88,63.88,0,0,1,755.33,72a33.37,33.37,0,0,1,13.18-3.3,21.19,21.19,0,0,1,12.36,3.5,11.81,11.81,0,0,1,5,6.8,21.78,21.78,0,0,1,.41,9.48,36.54,36.54,0,0,1-3.5,10.5,67.64,67.64,0,0,1-6.39,10.3,34.93,34.93,0,0,1-5.77,6.59l-2.88,2.89a9.76,9.76,0,0,1-3.3,2.06,43.7,43.7,0,0,1-15.45,7.62q-7.62,1.84-12.56,2.68-.42,8.64,3.29,11.74c2.48,2.06,5.7,3,9.69,2.88a38,38,0,0,0,13.59-3.5,114,114,0,0,0,14.63-7.62,101.87,101.87,0,0,0,12.77-9.27A64,64,0,0,0,799,116.7a3.88,3.88,0,0,1,2.27-1A3.69,3.69,0,0,1,803.94,116.29ZM738,114.64a6.83,6.83,0,0,0-.83,3.09,7.07,7.07,0,0,1-.82,3.09c2.47-1.37,4.59-2.68,6.38-3.92A33.46,33.46,0,0,0,747.5,113l2.89-2.88c3-3,4.94-5.36,5.76-7a45.15,45.15,0,0,0,4.54-9.27c1.09-3.15.95-5.56-.42-7.21q-1.23-2.06-4.32-.2a25.25,25.25,0,0,0-6.39,6A70.93,70.93,0,0,0,743,102.48,53.49,53.49,0,0,0,738,114.64Z"/></g></g></svg>